<svg role="img" viewBox="0 0 800 800" xmlns="http://www.w3.org/2000/svg" id="Teamcity--Streamline-Simple-Icons" height="800" width="800">
  <desc>
    Teamcity Streamline Icon: https://streamlinehq.com
  </desc>
  <title>TeamCity</title>
  <path d="M0 0v800h800V0zm88.80000000000001 98.80000000000001h249.33333333333337v61.06666666666667H246.53333333333336v239.86666666666667H180.4V159.86666666666667H88.80000000000001zm310.93333333333334 600h-300v-50h300zm185.46366666666668 -307.2753333333334A154.00000000000003 154.00000000000003 0 0 1 517.3333333333334 404a151.86666666666667 151.86666666666667 0 0 1 -154.26666666666668 -153.86666666666667V249.33333333333337A152.8 152.8 0 0 1 520 93.73333333333333 155.187 155.187 0 0 1 638.6666666666667 140.00000000000003l-42.13333333333334 48.53333333333334a111.19800000000001 111.19800000000001 0 0 0 -77.06666666666666 -34 89.03866666666667 89.03866666666667 0 0 0 -87.2 93.33333333333333v0.9333333333333335a89.35266666666668 89.35266666666668 0 0 0 87.2 94.53333333333333 107.53533333333334 107.53533333333334 0 0 0 79.2 -35.2l42.13333333333334 42.53333333333334a153.98233333333334 153.98233333333334 0 0 1 -55.60300000000001 40.85766666666667z" fill="#000000" stroke-width="33.3333"></path>
</svg>